HIERARCHY
ROOT Hips
{
	OFFSET 0.000000 0.000000 0.000000
	CHANNELS 6 Xposition Yposition Zposition Xrotation Yrotation Zrotation
	JOINT LeftUpLeg_virtual
	{
		OFFSET 0.000000 0.000000 0.000000
		CHANNELS 3 Xrotation Yrotation Zrotation
		JOINT LeftUpLeg
		{
			OFFSET 11.394100 -6.187798 -0.413800
			CHANNELS 3 Xrotation Yrotation Zrotation
			JOINT LeftLeg
			{
				OFFSET 0.430247 -32.302673 3.732800
				CHANNELS 3 Xrotation Yrotation Zrotation
				JOINT LeftFoot
				{
					OFFSET -0.430247 -48.264931 -6.423300
					CHANNELS 3 Xrotation Yrotation Zrotation
					JOINT LeftToeBase
					{
						OFFSET 4.230900 -16.068199 23.438400
						CHANNELS 3 Xrotation Yrotation Zrotation
						JOINT LeftToe_End
						{
							OFFSET 4.510700 0.695400 19.974600
							CHANNELS 3 Xrotation Yrotation Zrotation
							End Site
							{
								OFFSET 0 0 0
							}
						}
					}
				}
			}
		}
	}
	JOINT RightUpLeg_virtual
	{
		OFFSET 0.000000 0.000000 0.000000
		CHANNELS 3 Xrotation Yrotation Zrotation
		JOINT RightUpLeg
		{
			OFFSET -11.333700 -6.187798 -0.413800
			CHANNELS 3 Xrotation Yrotation Zrotation
			JOINT RightLeg
			{
				OFFSET -0.430392 -32.302628 3.733000
				CHANNELS 3 Xrotation Yrotation Zrotation
				JOINT RightFoot
				{
					OFFSET 0.430392 -48.264973 -6.423500
					CHANNELS 3 Xrotation Yrotation Zrotation
					JOINT RightToeBase
					{
						OFFSET -4.230900 -16.068199 23.438400
						CHANNELS 3 Xrotation Yrotation Zrotation
						JOINT RightToe_End
						{
							OFFSET -4.510700 0.695400 19.974600
							CHANNELS 3 Xrotation Yrotation Zrotation
							End Site
							{
								OFFSET 0 0 0
							}
						}
					}
				}
			}
		}
	}
	JOINT Spine_virtual
	{
		OFFSET 0.000000 0.000000 0.000000
		CHANNELS 3 Xrotation Yrotation Zrotation
		JOINT Spine
		{
			OFFSET -0.002400 12.777504 0.315300
			CHANNELS 3 Xrotation Yrotation Zrotation
			JOINT Spine1
			{
				OFFSET -0.002067 5.816869 0.032633
				CHANNELS 3 Xrotation Yrotation Zrotation
				JOINT Spine1_split
				{
					OFFSET -0.002067 5.816869 0.032633
					CHANNELS 3 Xrotation Yrotation Zrotation
					JOINT Spine2
					{
						OFFSET -0.002067 5.816869 0.032633
						CHANNELS 3 Xrotation Yrotation Zrotation
						JOINT Neck_virtual
						{
							OFFSET 0.000000 0.000000 0.000000
							CHANNELS 3 Xrotation Yrotation Zrotation
							JOINT Neck
							{
								OFFSET -0.003700 21.199493 -0.826900
								CHANNELS 3 Xrotation Yrotation Zrotation
								JOINT Head
								{
									OFFSET 0.000000 20.442200 4.834800
									CHANNELS 3 Xrotation Yrotation Zrotation
									JOINT HeadTop_End
									{
										OFFSET 0.000000 34.668396 4.968400
										CHANNELS 3 Xrotation Yrotation Zrotation
										End Site
										{
											OFFSET 0 0 0
										}
									}
								}
							}
						}
						JOINT LeftShoulder_virtual
						{
							OFFSET 0.000000 0.000000 0.000000
							CHANNELS 3 Xrotation Yrotation Zrotation
							JOINT LeftShoulder
							{
								OFFSET 3.288150 8.794197 -1.372250
								CHANNELS 3 Xrotation Yrotation Zrotation
								JOINT LeftShoulder_split
								{
									OFFSET 3.288150 8.794197 -1.372250
									CHANNELS 3 Xrotation Yrotation Zrotation
									JOINT LeftArm
									{
										OFFSET 11.953299 -2.279007 -0.146200
										CHANNELS 3 Xrotation Yrotation Zrotation
										JOINT LeftForeArm
										{
											OFFSET 18.448900 0.000000 0.000000
											CHANNELS 3 Xrotation Yrotation Zrotation
											JOINT LeftHand
											{
												OFFSET 29.527798 0.000000 0.000000
												CHANNELS 3 Xrotation Yrotation Zrotation
												End Site
												{
													OFFSET 0 0 0
												}
											}
										}
									}
								}
							}
						}
						JOINT RightShoulder_virtual
						{
							OFFSET 0.000000 0.000000 0.000000
							CHANNELS 3 Xrotation Yrotation Zrotation
							JOINT RightShoulder
							{
								OFFSET -3.249400 8.794197 -1.372250
								CHANNELS 3 Xrotation Yrotation Zrotation
								JOINT RightShoulder_split
								{
									OFFSET -3.249400 8.794197 -1.372250
									CHANNELS 3 Xrotation Yrotation Zrotation
									JOINT RightArm
									{
										OFFSET -11.953299 -2.279007 -0.146200
										CHANNELS 3 Xrotation Yrotation Zrotation
										JOINT RightForeArm
										{
											OFFSET -18.448900 0.000000 0.000000
											CHANNELS 3 Xrotation Yrotation Zrotation
											JOINT RightHand
											{
												OFFSET -29.527802 0.000000 0.000000
												CHANNELS 3 Xrotation Yrotation Zrotation
												End Site
												{
													OFFSET 0 0 0
												}
											}
										}
									}
								}
							}
						}
					}
				}
			}
		}
	}
}
MOTION
Frames: 10
Frame Time: 0.03333333
9.406841 69.678787 55.367882 0.000000 0.000000 0.000000 -14.636175 -44.198940 -8.424382 -61.088331 -15.445957 28.416210 57.459274 -8.105075 4.496909 7.119837 -16.008922 -28.478079 -3.372628 0.566910 1.358603 0.000000 0.000000 0.000000 -15.875545 -40.454968 -8.005650 -23.153614 2.728495 -42.406503 79.119935 15.353803 -9.149207 -4.373260 -5.715273 20.118783 -21.588596 -2.418175 11.121734 0.000000 0.000000 0.000000 -15.022432 -39.368725 -10.019777 26.489405 3.315787 -9.592610 -0.243422 0.955502 0.659571 1.251432 -2.525115 1.400330 0.000000 0.000000 0.000000 0.877885 0.902713 1.130439 1.889192 13.883024 1.157715 1.243214 22.879640 -5.463939 0.000000 0.000000 0.000000 0.303384 0.958659 1.098857 1.242396 2.341842 -9.230753 -0.002913 -2.205153 1.904623 -58.488003 3.871922 -43.097794 -177.965811 -66.310386 -176.870945 0.000000 0.000000 0.000000 -0.109940 0.604612 0.970978 3.405393 11.673361 -3.236020 -7.843323 -1.980458 1.485486 -46.144177 21.866497 85.928527 -172.642402 66.312258 171.243511 0.000000 0.000000 0.000000 
8.883190 70.132828 52.525078 0.000000 0.000000 0.000000 -14.294541 -44.218720 -6.794939 -57.709826 -14.733743 28.487594 49.795839 -8.696451 4.352924 11.646912 -16.241176 -29.862895 -2.834081 0.615088 1.069788 0.000000 0.000000 0.000000 -16.334035 -39.931458 -6.646882 -20.527903 0.643415 -42.905824 78.418276 15.363909 -9.558574 -12.485627 -8.793892 23.056763 -17.797472 -0.721642 7.117347 0.000000 0.000000 0.000000 -15.871107 -39.934607 -9.186020 25.192284 4.458968 -8.684446 0.321894 1.104751 -0.041180 0.642697 -2.214058 1.481904 0.000000 0.000000 0.000000 1.287275 1.015110 0.452084 2.296078 13.743203 0.677638 3.574524 22.306484 -5.810083 0.000000 0.000000 0.000000 0.954553 1.099537 0.432525 1.122693 3.661355 -9.179852 0.025386 -3.747916 2.076513 -57.186428 3.815865 -44.393668 -178.657846 -64.520836 -177.037875 0.000000 0.000000 0.000000 0.467595 0.714921 0.194970 3.278413 12.406415 -2.989101 -7.996190 -0.954743 0.849541 -47.574320 20.160970 86.730869 -170.990384 68.844332 170.019664 0.000000 0.000000 0.000000 
8.208828 71.145546 49.442253 0.000000 0.000000 0.000000 -12.877727 -43.559706 -4.653719 -55.814742 -13.521849 28.270093 42.416684 -8.296656 3.985672 15.368697 -16.167165 -28.714026 -2.470158 0.530077 0.657808 0.000000 0.000000 0.000000 -15.394104 -38.772037 -4.696499 -16.299277 -2.557308 -41.602675 76.358878 14.238034 -9.151961 -22.687667 -12.953850 21.910277 -11.263270 0.359864 4.468826 0.000000 0.000000 0.000000 -15.643356 -39.916107 -7.506694 23.886215 5.456753 -7.936060 0.836156 1.207761 -0.788151 0.067864 -1.804476 1.580323 0.000000 0.000000 0.000000 1.625662 1.115612 -0.310439 2.652261 13.421937 0.305004 5.167506 21.169026 -5.704370 0.000000 0.000000 0.000000 1.537997 1.203703 -0.258626 1.062714 4.513623 -8.901194 -0.068782 -4.623968 1.750587 -56.745055 2.787689 -45.284933 -179.804402 -63.043500 -177.712069 0.000000 0.000000 0.000000 0.997876 0.807555 -0.628564 3.188316 13.312504 -3.385332 -7.301778 0.512536 0.340840 -48.760167 18.538399 86.856920 -170.094550 69.372517 169.333544 0.000000 0.000000 0.000000 
7.461316 72.575478 46.101486 0.000000 0.000000 0.000000 -11.034565 -42.803307 -2.728522 -55.456406 -11.847655 27.810558 38.060799 -7.409707 3.802156 17.070326 -15.747054 -25.771490 -2.943158 0.278339 0.505574 0.000000 0.000000 0.000000 -13.634841 -37.646333 -2.862490 -12.591236 -5.927892 -38.744159 73.661186 12.215080 -8.020950 -31.512287 -16.417821 17.965085 -5.132152 0.850300 2.931388 0.000000 0.000000 0.000000 -14.586617 -39.836621 -5.548670 22.610959 6.178329 -7.329266 1.260621 1.244364 -1.371029 -0.022681 -1.295234 1.532263 0.000000 0.000000 0.000000 1.827753 1.181388 -0.920247 2.907475 13.021389 -0.070887 5.779511 19.823818 -5.418520 0.000000 0.000000 0.000000 1.952985 1.248201 -0.781356 1.063227 4.824996 -8.546046 -0.310390 -4.432167 1.011259 -57.076831 1.579283 -45.602830 178.723033 -62.392323 -178.842425 0.000000 0.000000 0.000000 1.406931 0.875047 -1.255977 3.151694 14.121932 -4.489033 -6.152902 1.650118 0.301523 -50.159157 17.189752 86.093148 -170.598113 67.644240 169.893483 0.000000 0.000000 0.000000 
6.777744 74.395378 42.646080 0.000000 0.000000 0.000000 -9.153229 -42.484569 -1.323021 -56.418513 -9.839526 27.152123 38.732165 -7.053162 3.898911 16.419630 -15.540497 -22.691070 -4.451864 -0.090247 1.135968 0.000000 0.000000 0.000000 -11.560994 -37.206479 -1.533546 -11.445494 -8.456310 -35.281209 70.553908 10.335021 -6.653112 -35.550175 -18.076939 15.290374 -2.655347 0.963616 1.929664 0.000000 0.000000 0.000000 -12.762938 -39.933247 -3.685927 21.415621 6.633358 -6.831621 1.568582 1.223093 -1.626868 0.059670 -0.911424 1.462625 0.000000 0.000000 0.000000 1.887152 1.210840 -1.186969 2.983184 12.722185 -0.521678 5.396415 18.652442 -5.255273 0.000000 0.000000 0.000000 2.181455 1.231349 -0.991985 1.081494 4.619934 -8.239104 -0.685361 -3.418609 -0.138746 -58.132368 0.760362 -45.377376 177.115548 -62.779342 179.700529 0.000000 0.000000 0.000000 1.641196 0.892411 -1.501612 3.143407 14.718130 -5.802889 -5.206486 2.108484 0.664459 -51.811110 16.131595 84.724542 -172.116109 64.722142 171.404007 0.000000 0.000000 0.000000 
6.192427 76.623428 39.172859 0.000000 0.000000 0.000000 -7.611033 -42.823326 -0.687714 -57.695721 -7.157079 26.135343 44.344341 -7.043234 4.085779 13.511438 -15.482978 -19.839449 -6.490722 -0.538013 2.498502 0.000000 0.000000 0.000000 -9.341929 -37.978536 -0.837175 -13.667723 -10.090403 -31.684510 67.096616 9.005697 -5.317489 -34.303385 -18.066098 15.377510 -3.954510 0.872551 1.077627 0.000000 0.000000 0.000000 -10.508687 -40.547623 -2.411816 20.297307 6.856266 -6.427986 1.752719 1.177287 -1.529712 0.386923 -0.633696 1.268018 0.000000 0.000000 0.000000 1.849345 1.211134 -1.064006 2.919952 12.574739 -1.060102 4.193455 17.844393 -5.372252 0.000000 0.000000 0.000000 2.242690 1.179733 -0.867897 1.103742 3.995498 -8.012359 -1.072746 -2.022955 -1.259251 -59.742490 0.501508 -44.856400 175.588222 -63.904862 178.099327 0.000000 0.000000 0.000000 1.720812 0.879283 -1.327449 3.160868 15.041315 -6.960232 -4.536045 1.743860 1.165255 -53.399679 15.567605 83.253743 -173.713690 62.164837 173.012312 0.000000 0.000000 0.000000 
5.788224 79.266754 35.638695 0.000000 0.000000 0.000000 -6.259536 -43.860408 -0.806086 -57.892178 -3.814011 24.505530 52.828248 -6.678347 4.184354 8.670579 -14.878811 -16.999269 -8.074187 -1.005503 4.196995 0.000000 0.000000 0.000000 -7.306819 -40.105983 -0.830768 -18.237595 -11.593876 -28.085560 63.391969 7.745346 -3.843414 -30.121886 -16.798720 16.327875 -5.815241 0.745035 0.294416 0.000000 0.000000 0.000000 -7.962476 -41.864138 -1.834903 19.255692 6.925128 -6.090501 1.814380 1.153756 -1.184727 0.788127 -0.387233 1.001321 0.000000 0.000000 0.000000 1.765439 1.200286 -0.658740 2.791466 12.599486 -1.625151 2.592779 17.461534 -5.803591 0.000000 0.000000 0.000000 2.180680 1.128531 -0.523200 1.085626 3.200524 -7.776019 -1.356920 -0.813962 -1.824387 -61.667305 0.814150 -44.148017 174.499708 -65.222706 176.726118 0.000000 0.000000 0.000000 1.708436 0.872487 -0.865431 3.249046 15.141308 -7.678809 -4.237697 0.966210 1.606865 -54.720764 15.501942 82.136187 -175.078649 60.947308 174.411216 0.000000 0.000000 0.000000 
5.522300 82.173767 32.037399 0.000000 0.000000 0.000000 -4.861222 -45.408382 -1.291299 -56.128606 -0.161676 22.357140 61.212702 -5.781866 3.971980 2.658095 -13.353846 -14.127802 -8.449365 -1.278404 5.586953 0.000000 0.000000 0.000000 -5.320066 -43.205956 -1.074965 -23.573976 -13.287846 -24.578702 59.382641 6.083942 -2.164568 -25.815964 -14.856657 16.223057 -5.071938 0.657276 -0.325494 0.000000 0.000000 0.000000 -5.356745 -43.722186 -1.780429 18.219349 6.917557 -5.807048 1.749224 1.160165 -0.759127 0.927005 -0.295635 0.837442 0.000000 0.000000 0.000000 1.684105 1.196167 -0.158740 2.675206 12.770248 -2.091148 1.067540 17.496136 -6.415589 0.000000 0.000000 0.000000 2.029798 1.099267 -0.116769 1.011637 2.414992 -7.411412 -1.422997 -0.015448 -1.937065 -63.973895 1.312192 -43.379658 174.143459 -66.444907 175.918134 0.000000 0.000000 0.000000 1.625639 0.879714 -0.328717 3.402046 15.096868 -7.887055 -4.198616 0.311053 1.727571 -55.920825 16.057087 81.778313 -176.154267 60.998965 175.580272 0.000000 0.000000 0.000000 
5.278499 85.044830 28.460119 0.000000 0.000000 0.000000 -3.298368 -47.347445 -1.753457 -52.036558 3.424966 19.908582 66.601543 -4.362870 3.382693 -3.364346 -11.078521 -11.190136 -8.212585 -1.317875 6.137738 0.000000 0.000000 0.000000 -3.561152 -46.750668 -1.363145 -28.225823 -15.146564 -21.640946 55.855443 3.926952 -0.558066 -22.299910 -13.113058 14.806341 -2.645002 0.624774 -0.634401 0.000000 0.000000 0.000000 -2.966738 -45.998913 -1.939508 17.143496 6.859426 -5.635315 1.585176 1.185613 -0.420338 1.143208 -0.412308 0.678214 0.000000 0.000000 0.000000 1.630658 1.201461 0.259399 2.631080 12.996650 -2.337423 0.045103 17.811426 -7.046049 0.000000 0.000000 0.000000 1.860072 1.104652 0.204365 0.920695 1.782737 -6.853015 -1.350990 0.515692 -1.566606 -66.300694 1.719287 -42.646520 174.549036 -67.585535 175.794876 0.000000 0.000000 0.000000 1.515132 0.911169 0.097557 3.637884 14.925007 -7.864081 -4.123390 0.041847 1.553928 -57.151461 17.201114 82.151767 -176.760842 61.982034 176.339953 0.000000 0.000000 0.000000 
5.113086 87.477684 24.850523 0.000000 0.000000 0.000000 -1.558560 -49.675153 -1.787070 -46.024133 6.248785 17.414512 68.112402 -2.861065 2.742852 -8.455738 -8.431485 -8.456295 -8.880260 -1.274883 5.948513 0.000000 0.000000 0.000000 -2.174598 -50.367403 -1.495547 -31.259597 -16.685090 -19.744670 53.630089 1.605482 0.624340 -18.520432 -12.179184 13.512789 -1.117023 0.634759 -0.665332 0.000000 0.000000 0.000000 -0.901643 -48.147076 -1.856331 16.068297 6.782617 -5.617174 1.330095 1.196573 -0.224818 1.131302 -0.633096 0.658298 0.000000 0.000000 0.000000 1.549142 1.201987 0.508635 2.620524 13.234519 -2.290891 -0.277240 18.340340 -7.547940 0.000000 0.000000 0.000000 1.696438 1.109997 0.370072 0.837894 1.379754 -6.097096 -1.258374 0.863280 -1.148041 -68.326234 1.849626 -41.998167 175.423478 -68.949489 176.134036 0.000000 0.000000 0.000000 1.398182 0.946065 0.330704 3.920713 14.658544 -7.750141 -3.996536 -0.022904 1.203158 -58.607770 18.589297 82.886641 -176.861123 63.425922 176.632353 0.000000 0.000000 0.000000 
